
        <svg xmlns="http://www.w3.org/2000/svg" xmlns:xlink="http://www.w3.org/1999/xlink" version="1.1" width="3169.3852106175727" height="1024.233666385232" viewBox="0 0 3169.3852106175727 1024.233666385232">
			
			<g transform="scale(8.469260530878646) translate(10, 10)">
				<defs id="SvgjsDefs1150"><linearGradient id="SvgjsLinearGradient1159"><stop id="SvgjsStop1160" stop-color="#00ddff" offset="0"/><stop id="SvgjsStop1161" stop-color="#ff00d4" offset="1"/></linearGradient><linearGradient id="SvgjsLinearGradient1162"><stop id="SvgjsStop1163" stop-color="#00ddff" offset="0"/><stop id="SvgjsStop1164" stop-color="#ff00d4" offset="1"/></linearGradient><linearGradient id="SvgjsLinearGradient1165"><stop id="SvgjsStop1166" stop-color="#00ddff" offset="0"/><stop id="SvgjsStop1167" stop-color="#ff00d4" offset="1"/></linearGradient></defs><g id="SvgjsG1151" featureKey="Rs8Ttr-0" transform="matrix(1.0157380181296563,0,0,1.0157380181296563,6.984261981870343,-6.2518082900745)" fill="#000"><path xmlns="http://www.w3.org/2000/svg" d="M37.248 80c-0.512 0-1.024-0.196-1.416-0.584-0.78-0.772-0.78-2.048 0-2.828l29.632-29.632c0.78-0.772 2.048-0.772 2.828 0 0.78 0.78 0.78 2.056 0 2.828l-29.632 29.632c-0.392 0.388-0.904 0.584-1.412 0.584z"/><path xmlns="http://www.w3.org/2000/svg" d="M93 64h-26c-1.104 0-2-0.9-2-2s0.896-2 2-2h21l-18.508-17.636c-0.796-0.76-0.828-2.032-0.068-2.828 0.76-0.8 2.028-0.828 2.828-0.076l22.12 21.084c0.592 0.576 0.78 1.424 0.476 2.192-0.296 0.768-1.028 1.264-1.848 1.264z"/><path xmlns="http://www.w3.org/2000/svg" d="M51.336 37.452c-0.64 0-1.268-0.304-1.66-0.884-0.62-0.916-0.384-2.156 0.532-2.772l15.544-10.548c0.792-0.532 1.856-0.428 2.536 0.252l3.624 3.616c0.78 0.772 0.78 2.056 0 2.828s-2.048 0.772-2.828 0l-2.452-2.452-14.172 9.612c-0.352 0.24-0.736 0.348-1.124 0.348z"/><path xmlns="http://www.w3.org/2000/svg" d="M93 44h-9.040c-0.544 0-1.060-0.22-1.436-0.6l-8.828-9.084c-0.768-0.792-0.752-2.068 0.040-2.828 0.788-0.768 2.056-0.752 2.828 0.040l8.244 8.476h8.196c1.104 0 2 0.904 2 2s-0.904 1.996-2.004 1.996z"/><path xmlns="http://www.w3.org/2000/svg" d="M81.024 28c-3.308 0-6-2.692-6-6s2.692-6 6-6c3.304 0 6 2.692 6 6s-2.696 6-6 6zM81.024 20c-1.104 0-2 0.9-2 2s0.896 2 2 2 2-0.9 2-2-0.9-2-2-2z"/><path xmlns="http://www.w3.org/2000/svg" d="M27 68h-24c-1.104 0-2-0.9-2-2s0.896-2 2-2h24c1.104 0 2 0.9 2 2s-0.9 2-2 2z"/><path xmlns="http://www.w3.org/2000/svg" d="M35 56h-32c-1.104 0-2-0.9-2-2s0.896-2 2-2h32c1.104 0 2 0.9 2 2s-0.9 2-2 2z"/><path xmlns="http://www.w3.org/2000/svg" d="M43 44h-40c-1.104 0-2-0.9-2-2s0.896-2 2-2h40c1.104 0 2 0.9 2 2s-0.9 2-2 2z"/></g><g id="SvgjsG1152" featureKey="7fT3kx-0" transform="matrix(0.7602184517028254,0,0,0.7602184517028254,62.32751955125394,85.47258721059981)" fill="#000"><path d="M4.38 14.02 l0 3.8 l9.2 0 l0 2.18 l-11.38 0 l0 -14.92 l10.5 0 l0 2.2 l-8.32 0 l0 4.52 q0.62 -0.36 1.38 -0.48 q0.56 -0.1 1.44 -0.1 l3.26 0 l0 2.22 l-3.26 0 q-0.82 0 -1.44 0.1 q-0.76 0.14 -1.38 0.48 z M41.652 9.74 l-5.1 6.1 l-5.06 -6.1 l0 10.26 l-2.14 0 l0 -12.82 l-1.74 -2.1 l2.82 0 l6.1 7.32 l6.18 -7.32 l2.82 0 l-1.74 2.1 l0 12.82 l-2.14 0 l0 -10.26 z M72.06400000000001 15.46 q0 1.46 -0.88 2.6 q-0.86 1.08 -2.37 1.68 t-3.41 0.6 q-1.74 0 -3.38 -0.81 t-2.76 -2.25 l1.56 -1.46 q1.94 2.34 4.58 2.34 q1.16 0 2.12 -0.28 q1.06 -0.32 1.64 -0.9 q0.66 -0.64 0.66 -1.52 q0 -1.06 -0.66 -1.6 q-0.56 -0.46 -1.66 -0.6 q-0.64 -0.08 -2.1 -0.08 q-2.68 0 -4.09 -0.98 t-1.41 -2.88 q0 -1.2 0.71 -2.28 t1.95 -1.72 q1.28 -0.68 2.84 -0.68 q1.76 0 3.18 0.54 q1.52 0.58 2.82 1.82 l-1.36 1.6 q-1.22 -0.98 -2.22 -1.37 t-2.42 -0.39 q-0.82 0 -1.53 0.34 t-1.13 0.91 t-0.42 1.21 q0 1.72 3.18 1.72 q2.54 0 4.02 0.52 q1.4 0.5 2 1.52 q0.54 0.9 0.54 2.4 z M120.768 5.08 l2.3 0 l-4.76 14.92 l-2.36 0 l-2.88 -8.82 l-2.8 8.82 l-2.36 0 l-5.06 -14.92 l2.24 0 l3.96 11.16 l2.8 -8.8 l-0.76 -2.36 l2.24 0 l3.76 11.16 z M139.94 20 l-2.14 0 l0 -14.92 l2.14 0 l0 14.92 z M158.35199999999998 7.26 l0 4.96 q0.62 -0.36 1.38 -0.48 q0.56 -0.1 1.44 -0.1 l2.84 0 q1.18 0 1.84 -0.54 q0.7 -0.58 0.7 -1.74 q0 -1.1 -0.74 -1.64 q-0.64 -0.46 -1.8 -0.46 l-5.66 0 z M164.73199999999997 17.64 l-1.82 -3.82 l-1.74 0 q-0.82 0 -1.44 0.1 q-0.76 0.14 -1.38 0.48 l0 5.6 l-2.18 0 l0 -14.92 l7.84 0 q1.38 0 2.44 0.52 t1.64 1.48 q0.62 1.02 0.62 2.4 q0 1.68 -0.9 2.76 t-2.54 1.5 l1.16 2.38 q0.5 0.74 0.78 1.04 q0.34 0.38 0.65 0.51 t0.81 0.13 l0.22 0 l0.48 -0.02 l0 2.22 q-1.16 0 -1.72 -0.08 q-0.94 -0.16 -1.6 -0.62 q-0.78 -0.56 -1.32 -1.66 z M186.98399999999998 14.02 l0 3.8 l9.2 0 l0 2.18 l-11.38 0 l0 -14.92 l10.5 0 l0 2.2 l-8.32 0 l0 4.52 q0.62 -0.36 1.38 -0.48 q0.56 -0.1 1.44 -0.1 l3.26 0 l0 2.22 l-3.26 0 q-0.82 0 -1.44 0.1 q-0.76 0.14 -1.38 0.48 z M221.97599999999997 20 l-10.46 0 l0 -14.92 l2.18 0 l0 12.74 l8.28 0 l0 2.18 z M238.58799999999997 14.02 l0 3.8 l9.2 0 l0 2.18 l-11.38 0 l0 -14.92 l10.5 0 l0 2.2 l-8.32 0 l0 4.52 q0.62 -0.36 1.38 -0.48 q0.56 -0.1 1.44 -0.1 l3.26 0 l0 2.22 l-3.26 0 q-0.82 0 -1.44 0.1 q-0.76 0.14 -1.38 0.48 z M274.71999999999997 15.46 q0 1.46 -0.88 2.6 q-0.86 1.08 -2.37 1.68 t-3.41 0.6 q-1.74 0 -3.38 -0.81 t-2.76 -2.25 l1.56 -1.46 q1.94 2.34 4.58 2.34 q1.16 0 2.12 -0.28 q1.06 -0.32 1.64 -0.9 q0.66 -0.64 0.66 -1.52 q0 -1.06 -0.66 -1.6 q-0.56 -0.46 -1.66 -0.6 q-0.64 -0.08 -2.1 -0.08 q-2.68 0 -4.09 -0.98 t-1.41 -2.88 q0 -1.2 0.71 -2.28 t1.95 -1.72 q1.28 -0.68 2.84 -0.68 q1.76 0 3.18 0.54 q1.52 0.58 2.82 1.82 l-1.36 1.6 q-1.22 -0.98 -2.22 -1.37 t-2.42 -0.39 q-0.82 0 -1.53 0.34 t-1.13 0.91 t-0.42 1.21 q0 1.72 3.18 1.72 q2.54 0 4.02 0.52 q1.4 0.5 2 1.52 q0.54 0.9 0.54 2.4 z M301.352 15.46 q0 1.46 -0.88 2.6 q-0.86 1.08 -2.37 1.68 t-3.41 0.6 q-1.74 0 -3.38 -0.81 t-2.76 -2.25 l1.56 -1.46 q1.94 2.34 4.58 2.34 q1.16 0 2.12 -0.28 q1.06 -0.32 1.64 -0.9 q0.66 -0.64 0.66 -1.52 q0 -1.06 -0.66 -1.6 q-0.56 -0.46 -1.66 -0.6 q-0.64 -0.08 -2.1 -0.08 q-2.68 0 -4.09 -0.98 t-1.41 -2.88 q0 -1.2 0.71 -2.28 t1.95 -1.72 q1.28 -0.68 2.84 -0.68 q1.76 0 3.18 0.54 q1.52 0.58 2.82 1.82 l-1.36 1.6 q-1.22 -0.98 -2.22 -1.37 t-2.42 -0.39 q-0.82 0 -1.53 0.34 t-1.13 0.91 t-0.42 1.21 q0 1.72 3.18 1.72 q2.54 0 4.02 0.52 q1.4 0.5 2 1.52 q0.54 0.9 0.54 2.4 z"/></g><g id="SvgjsG1153" featureKey="nameLeftFeature-0" transform="matrix(2.270171803762393,0,0,2.270171803762393,113.00000433000909,16.42437473520534)" fill="#000"><path d="M11.74 13.780000000000001 c-7.94 0 -8.06 -0.02 -8.16 -0.02 l-0.04 0 c-2 -0.16 -3.54 -1.86 -3.54 -3.88 c0 -2.16 1.74 -3.9 3.9 -3.9 l8.4 0 c1.68 0 3.04 1.36 3.04 3.06 l0 1.62 l-11.38 0 l-0.02 0 l-0.02 0 c-0.46 -0.02 -0.76 -0.36 -0.76 -0.78 s0.32 -0.76 0.74 -0.78 l9.88 0 l0 -0.04 c0 -0.86 -0.66 -1.52 -1.52 -1.52 l-8.36 0 c-1.28 0 -2.34 1.04 -2.34 2.34 c0 1.2 0.9 2.16 2.04 2.32 c7.98 0 8.06 0.02 8.2 0.02 c2 0.16 3.54 1.88 3.54 3.88 c0 2.16 -1.74 3.9 -3.88 3.9 l-8.42 0 c-1.68 0 -3.04 -1.36 -3.04 -3.04 l0 -1.64 l11.46 0 c0.98 0.06 0.98 1.5 0 1.56 l-9.9 0 l0 0.04 c0 0.86 0.66 1.52 1.52 1.52 l8.38 0 c1.26 0 2.34 -1 2.34 -2.34 c0 -1.2 -0.9 -2.16 -2.06 -2.32 z M19.7 7.539999999999999 l0 7.78 l13.82 0 l0 4.68 l-15.38 0 l0 -1.56 l13.84 0 l0 -1.56 l-13.84 0 l0 -10.9 l4.68 0 l0 7.8 l-1.56 0 l0 -6.24 l-1.56 0 z M41 20 l-4.68 0 l0 -14.02 l4.68 0 l0 10.9 l-1.56 0 l0 -9.34 l-1.56 0 l0 10.9 l3.12 0 l0 1.56 z M53.239999999999995 13.92 l4.48 -7.94 l4.96 0 l0 14.02 l-4.68 0 l0 -5.24 l-2.98 5.24 l-3.58 0 l-4.54 -7.96 l0 -2.94 l5.46 9.34 l1.76 0 l5.44 -9.34 l0 9.34 l1.56 0 l0 -10.9 l-2.5 0 l-5.42 9.36 l-5.34 -9.36 l-2.5 0 l0 10.9 l1.54 0 l0 -2.94 l1.56 2.68 l0 1.82 l-4.66 0 l0 -14.02 l4.96 0 z"/></g><g id="SvgjsG1154" featureKey="nameRightFeature-0" transform="matrix(1.848305187403628,0,0,1.848305187403628,269.9394751888464,24.455085759800006)" fill="#000"><path d="M13.98 5.880000000000001 l-3.3 0 l0 14.12 l-3.56 0 l0 -14.12 l-3.3 0 l0 -2.64 l10.16 0 l0 2.64 z M10.28 19.6 l0 -14.12 l3.3 0 l0 -1.84 l-9.36 0 l0 1.84 l3.3 0 l0 14.12 l2.76 0 z M18.7 12.54 l0 4.82 l4.52 0 l0 2.64 l-8.08 0 l0 -16.76 l8.08 0 l0 2.64 l-4.52 -0.02 l0 4.08 l2.84 0 l0 2.6 l-2.84 0 z M21.14 12.14 l0 -1.8 l-2.84 0 l0 -4.88 l4.52 0.02 l0 -1.84 l-7.28 0 l0 15.96 l7.28 0 l0 -1.84 l-4.52 0 l0 -5.62 l2.84 0 z M33.84 14.219999999999999 l0 2.18 c0.02 1.96 -1.54 3.82 -3.56 3.82 c-0.1 -0.02 -0.16 -0.02 -0.24 -0.02 l-0.84 0 c-0.24 0 -0.48 0 -0.72 0.02 l-0.3 0 c-2.02 0 -3.58 -1.78 -3.58 -3.76 l0 -9.7 c0 -1.96 1.58 -3.76 3.58 -3.76 c0.4 0.02 0.8 0.02 1.18 0.02 l0.9 0 c2.02 0 3.6 1.78 3.58 3.76 l0 2.62 l-3.6 0 l0 -1.48 c0.04 -1.94 -0.08 -2.02 -1.32 -2.02 c-0.48 0 -0.78 0.08 -0.78 0.7 l0 10.02 c0 0.68 0.56 0.7 1.06 0.7 c0.92 -0.04 1.04 -1.16 1.04 -2.48 l0 -0.62 l3.6 0 z M30.64 7.42 l0 1.58 l2.8 0 l0 -2.22 c0 -1.74 -1.36 -3.36 -3.16 -3.36 l-0.5 0 c-0.54 0 -1.06 -0.02 -1.6 -0.02 c-1.74 0 -3.18 1.6 -3.18 3.36 l0 9.7 c0 1.78 1.42 3.36 3.18 3.36 c0.42 0 0.88 0.02 1.32 0.02 l0.1 0 c0.38 0 0.78 0 1.14 -0.06 c1.56 -0.24 2.7 -1.78 2.7 -3.38 l0 -1.78 l-2.8 0 l0 0.48 c0 1.1 -0.12 2.64 -1.6 2.64 c-0.5 0 -1.3 -0.2 -1.3 -1.12 l0 -10.02 c0 -0.94 0.6 -1.1 1.18 -1.1 c1.6 0 1.72 0.54 1.72 1.92 z M42 20 l0 -7.12 l-3.08 0 l0 7.12 l-3.54 0 l0 -16.76 l3.54 0 l0 6.9 l3.08 0 l0 -6.9 l3.6 0 l0 16.76 l-3.6 0 z M42.400000000000006 12.48 l0 7.12 l2.8 0 l0 -15.96 l-2.8 0 l0 6.9 l-3.88 0 l0 -6.9 l-2.74 0 l0 15.96 l2.74 0 l0 -7.12 l3.88 0 z"/></g>
			</g>
		</svg>
	